<?xml version="1.0" encoding="UTF-8"?>
<svg xmlns="http://www.w3.org/2000/svg" xmlns:xlink="http://www.w3.org/1999/xlink" width="1500pt" height="80pt" viewBox="0 0 1500 80" version="1.1">
<g id="surface1">
<path style=" stroke:none;fill-rule:nonzero;fill:rgb(20.392157%,22.745098%,25.098039%);fill-opacity:1;" d="M 611.886719 11.78125 C 603.214844 5.519531 582.507812 0 556 0 L 48 0 C 21.492188 0 0 5.371094 0 12 L 0 68 C 0 74.628906 21.492188 80 48 80 L 1452 80 C 1478.507812 80 1500 74.628906 1500 68 L 1500 12 C 1500 5.371094 1478.507812 0 1452 0 L 940 0 C 913.492188 0 892.785156 5.519531 884.113281 11.78125 C 864.589844 25.878906 811.023438 36 748 36 C 684.976562 36 631.410156 25.878906 611.886719 11.78125 Z M 611.886719 11.78125 "/>
<path style=" stroke:none;fill-rule:nonzero;fill:rgb(20.392157%,22.745098%,25.098039%);fill-opacity:1;" d="M 1500 56 L 0 56 L 0 80 L 1500 80 Z M 1500 56 "/>
</g>
</svg>
